<?xml version="1.0" encoding="UTF-8" standalone="no"?>
<svg
   xmlns:dc="http://purl.org/dc/elements/1.1/"
   xmlns:cc="http://creativecommons.org/ns#"
   xmlns:rdf="http://www.w3.org/1999/02/22-rdf-syntax-ns#"
   xmlns:svg="http://www.w3.org/2000/svg"
   xmlns="http://www.w3.org/2000/svg"
   xmlns:sodipodi="http://sodipodi.sourceforge.net/DTD/sodipodi-0.dtd"
   xmlns:inkscape="http://www.inkscape.org/namespaces/inkscape"
   width="39.656021mm"
   height="33.583054mm"
   viewBox="0 0 39.656021 33.583054"
   version="1.1"
   id="svg1218"
   inkscape:version="1.0.1 (3bc2e813f5, 2020-09-07)"
   sodipodi:docname="icon-stack.svg">
  <defs
     id="defs1212" />
  <sodipodi:namedview
     id="base"
     pagecolor="#ffffff"
     bordercolor="#666666"
     borderopacity="1.0"
     inkscape:pageopacity="0.0"
     inkscape:pageshadow="2"
     inkscape:zoom="3.959798"
     inkscape:cx="109.15366"
     inkscape:cy="81.750625"
     inkscape:document-units="mm"
     inkscape:current-layer="layer1"
     inkscape:document-rotation="0"
     showgrid="false"
     fit-margin-top="0"
     fit-margin-left="0"
     fit-margin-right="0"
     fit-margin-bottom="0"
     inkscape:window-width="1920"
     inkscape:window-height="1027"
     inkscape:window-x="-8"
     inkscape:window-y="-8"
     inkscape:window-maximized="1" />
  <metadata
     id="metadata1215">
    <rdf:RDF>
      <cc:Work
         rdf:about="">
        <dc:format>image/svg+xml</dc:format>
        <dc:type
           rdf:resource="http://purl.org/dc/dcmitype/StillImage" />
        <dc:title></dc:title>
      </cc:Work>
    </rdf:RDF>
  </metadata>
  <g
     inkscape:label="Layer 1"
     inkscape:groupmode="layer"
     id="layer1"
     transform="translate(-86.005322,-97.357277)">
    <g
       id="g1833">
      <path
         fill="#000000"
         fill-opacity="0"
         d="m 124.584,120.23023 c -0.45949,0 -0.83717,0.3974 -0.83717,0.86364 0,0.52409 0.37448,0.89856 0.89874,0.89856 0.78621,0 1.19813,-0.936 0.59898,-1.49771 -0.14979,-0.18724 -0.37431,-0.26214 -0.59898,-0.26214 -0.0207,-0.002 -0.0412,-0.002 -0.0616,-0.002 z"
         fill-rule="evenodd"
         id="path206"
         style="fill:none;stroke-width:0.264583" />
      <path
         stroke="#e56a54"
         stroke-width="0.264583"
         stroke-linejoin="round"
         stroke-linecap="butt"
         d="m 124.584,120.23023 c -0.45949,0 -0.83717,0.3974 -0.83717,0.86364 0,0.52409 0.37448,0.89856 0.89874,0.89856 0.78621,0 1.19813,-0.936 0.59898,-1.49771 -0.14979,-0.18724 -0.37431,-0.26214 -0.59898,-0.26214 -0.0207,-0.002 -0.0412,-0.002 -0.0616,-0.002 z"
         fill-rule="evenodd"
         id="path208"
         style="fill:none" />
      <path
         fill="#000000"
         fill-opacity="0"
         d="m 124.73395,115.24538 c -0.0293,0 -0.0589,0.002 -0.0884,0.007 -0.0207,-0.002 -0.0412,-0.002 -0.0616,-0.002 -0.45949,0 -0.83717,0.39741 -0.83717,0.86347 0,0.48681 0.37448,0.89873 0.89874,0.89873 0.78621,0 1.19813,-0.97362 0.59898,-1.53516 -0.13005,-0.13022 -0.31661,-0.23193 -0.5106,-0.23193 z"
         fill-rule="evenodd"
         id="path210"
         style="fill:none;stroke-width:0.264583" />
      <path
         stroke="#e56a54"
         stroke-width="0.264583"
         stroke-linejoin="round"
         stroke-linecap="butt"
         d="m 124.73395,115.24538 c -0.0293,0 -0.0589,0.002 -0.0884,0.007 -0.0207,-0.002 -0.0412,-0.002 -0.0616,-0.002 -0.45949,0 -0.83717,0.39741 -0.83717,0.86347 0,0.48681 0.37448,0.89873 0.89874,0.89873 0.78621,0 1.19813,-0.97362 0.59898,-1.53516 -0.13005,-0.13022 -0.31661,-0.23193 -0.5106,-0.23193 z"
         fill-rule="evenodd"
         id="path212"
         style="fill:none" />
      <path
         fill="#000000"
         fill-opacity="0"
         d="m 124.64557,110.23506 c -0.48682,0 -0.89874,0.41192 -0.89874,0.89873 0,0.48681 0.37448,0.89856 0.89874,0.89856 0.78621,0 1.19813,-0.97345 0.59898,-1.53516 -0.14979,-0.18723 -0.37431,-0.26213 -0.59898,-0.26213 z"
         fill-rule="evenodd"
         id="path214"
         style="fill:none;stroke-width:0.264583" />
      <path
         stroke="#e56a54"
         stroke-width="0.264583"
         stroke-linejoin="round"
         stroke-linecap="butt"
         d="m 124.64557,110.23506 c -0.48682,0 -0.89874,0.41192 -0.89874,0.89873 0,0.48681 0.37448,0.89856 0.89874,0.89856 0.78621,0 1.19813,-0.97345 0.59898,-1.53516 -0.14979,-0.18723 -0.37431,-0.26213 -0.59898,-0.26213 z"
         fill-rule="evenodd"
         id="path216"
         style="fill:none" />
      <path
         fill="#000000"
         fill-opacity="0"
         d="m 91.320528,118.95956 -5.017571,2.43388 18.422443,9.39838 18.42228,-9.39838 -5.01741,-2.43388 -13.40487,6.85214 z"
         fill-rule="evenodd"
         id="path218"
         style="stroke-width:0.264583" />
      <path
         stroke="#e56a54"
         stroke-width="0.264583"
         stroke-miterlimit="221.981"
         stroke-linecap="butt"
         d="m 91.320528,118.95956 -5.017571,2.43388 18.422443,9.39838 18.42228,-9.39838 -5.01741,-2.43388 -13.40487,6.85214 z"
         fill-rule="evenodd"
         id="path220"
         style="fill:none" />
      <path
         fill="#000000"
         fill-opacity="0"
         d="m 118.13027,113.97943 -5.01739,2.54623 -8.38748,4.30608 -8.38747,-4.30608 -5.017402,-2.54623 -5.017571,2.43389 5.017571,2.54624 13.404872,6.85214 13.40487,-6.85214 5.01741,-2.54624 z"
         fill-rule="evenodd"
         id="path222"
         style="stroke-width:0.264583" />
      <path
         stroke="#e56a54"
         stroke-width="0.264583"
         stroke-miterlimit="221.981"
         stroke-linecap="butt"
         d="m 118.13027,113.97943 -5.01739,2.54623 -8.38748,4.30608 -8.38747,-4.30608 -5.017402,-2.54623 -5.017571,2.43389 5.017571,2.54624 13.404872,6.85214 13.40487,-6.85214 5.01741,-2.54624 z"
         fill-rule="evenodd"
         id="path224"
         style="fill:none" />
      <path
         fill="#000000"
         fill-opacity="0"
         d="m 118.13027,108.99948 -5.01739,2.54623 -5.01758,2.54606 -3.3699,1.75985 -3.3699,-1.75985 -5.01757,-2.54606 -5.017402,-2.54623 -5.017571,2.39644 5.017571,2.58351 5.017402,2.54623 8.38747,4.30608 8.38748,-4.30608 5.01739,-2.54623 5.01741,-2.58351 z"
         fill-rule="evenodd"
         id="path226"
         style="stroke-width:0.264583" />
      <path
         stroke="#e56a54"
         stroke-width="0.264583"
         stroke-miterlimit="221.981"
         stroke-linecap="butt"
         d="m 118.13027,108.99948 -5.01739,2.54623 -5.01758,2.54606 -3.3699,1.75985 -3.3699,-1.75985 -5.01757,-2.54606 -5.017402,-2.54623 -5.017571,2.39644 5.017571,2.58351 5.017402,2.54623 8.38747,4.30608 8.38748,-4.30608 5.01739,-2.54623 5.01741,-2.58351 z"
         fill-rule="evenodd"
         id="path228"
         style="fill:none" />
      <path
         fill="#000000"
         fill-opacity="0"
         d="m 104.7254,97.504234 -18.422441,8.911556 18.422441,9.43583 18.42228,-9.43583 z"
         fill-rule="evenodd"
         id="path230"
         style="stroke-width:0.264583" />
      <path
         stroke="#e56a54"
         stroke-width="0.264583"
         stroke-miterlimit="221.981"
         stroke-linecap="butt"
         d="m 104.7254,97.504234 -18.422441,8.911556 18.422441,9.43583 18.42228,-9.43583 z"
         fill-rule="evenodd"
         id="path232"
         style="fill:none" />
      <path
         fill="#000000"
         fill-opacity="0"
         d="m 124.584,105.25274 c -0.45949,0 -0.83717,0.39741 -0.83717,0.86348 0,0.50216 0.34344,0.90109 0.83294,0.90109 0.0216,0 0.0435,-7.9e-4 0.0658,-0.002 0.78622,0 1.19814,-0.93618 0.59899,-1.49772 -0.14979,-0.18723 -0.37431,-0.26212 -0.59899,-0.26212 -0.0207,-0.002 -0.0412,-0.002 -0.0616,-0.002 z"
         fill-rule="evenodd"
         id="path234"
         style="fill:none;stroke-width:0.264583" />
      <path
         stroke="#e56a54"
         stroke-width="0.264583"
         stroke-linejoin="round"
         stroke-linecap="butt"
         d="m 124.584,105.25274 c -0.45949,0 -0.83717,0.39741 -0.83717,0.86348 0,0.50216 0.34344,0.90109 0.83294,0.90109 0.0216,0 0.0435,-7.9e-4 0.0658,-0.002 0.78622,0 1.19814,-0.93618 0.59899,-1.49772 -0.14979,-0.18723 -0.37431,-0.26212 -0.59899,-0.26212 -0.0207,-0.002 -0.0412,-0.002 -0.0616,-0.002 z"
         fill-rule="evenodd"
         id="path236"
         style="fill:none" />
    </g>
  </g>
</svg>
