<?xml version="1.0" encoding="UTF-8" standalone="no"?>
<svg
   xmlns:dc="http://purl.org/dc/elements/1.1/"
   xmlns:cc="http://creativecommons.org/ns#"
   xmlns:rdf="http://www.w3.org/1999/02/22-rdf-syntax-ns#"
   xmlns:svg="http://www.w3.org/2000/svg"
   xmlns="http://www.w3.org/2000/svg"
   xmlns:sodipodi="http://sodipodi.sourceforge.net/DTD/sodipodi-0.dtd"
   xmlns:inkscape="http://www.inkscape.org/namespaces/inkscape"
   width="15.374797mm"
   height="19.985615mm"
   viewBox="0 0 15.374797 19.985615"
   version="1.1"
   id="svg1929"
   inkscape:version="1.0.1 (3bc2e813f5, 2020-09-07)"
   sodipodi:docname="microscope-icon.svg">
  <defs
     id="defs1923" />
  <sodipodi:namedview
     id="base"
     pagecolor="#ffffff"
     bordercolor="#666666"
     borderopacity="1.0"
     inkscape:pageopacity="0.0"
     inkscape:pageshadow="2"
     inkscape:zoom="0.7"
     inkscape:cx="31.285567"
     inkscape:cy="158.38741"
     inkscape:document-units="mm"
     inkscape:current-layer="layer1"
     inkscape:document-rotation="0"
     showgrid="false"
     fit-margin-top="0"
     fit-margin-left="0"
     fit-margin-right="0"
     fit-margin-bottom="0"
     inkscape:window-width="1920"
     inkscape:window-height="1027"
     inkscape:window-x="-8"
     inkscape:window-y="-8"
     inkscape:window-maximized="1" />
  <metadata
     id="metadata1926">
    <rdf:RDF>
      <cc:Work
         rdf:about="">
        <dc:format>image/svg+xml</dc:format>
        <dc:type
           rdf:resource="http://purl.org/dc/dcmitype/StillImage" />
        <dc:title></dc:title>
      </cc:Work>
    </rdf:RDF>
  </metadata>
  <g
     inkscape:label="Layer 1"
     inkscape:groupmode="layer"
     id="layer1"
     transform="translate(-89.830459,-83.745289)">
    <g
       id="g1092"
       transform="matrix(0.26458333,0,0,0.26458333,-29.480732,31.81849)">
      <path
         fill="#e56a54"
         d="m 492.80524,198.54353 v 2.44369 h -5.19839 v -2.44369 z m 2.45023,4.65561 v 26.96681 h -10.01935 v -26.96681 z m -6.15201,29.25157 v 3.62912 h -1.97339 v -3.62912 z m 4.17859,0 v 7.72846 h -1.97339 v -7.72846 z m 3.70178,17.03305 c 1.42377,0 2.60251,1.1788 2.60251,2.68211 0,1.49669 -1.17874,2.6755 -2.60251,2.6755 h -15.6879 v -5.35761 z m -2.67536,7.64899 c -0.0795,2.04635 -1.81445,3.6225 -3.86734,3.6225 h -9.1452 v -3.6225 z m -4.41696,5.91388 v 1.80795 h -8.59558 v -1.80795 z m -6.152,-66.78786 c -0.54963,0 -1.09928,0.4702 -1.09928,1.10595 0,0.62914 0.54965,1.09934 1.09928,1.09934 h 1.26483 v 2.44369 h -1.26483 c -0.54963,0 -1.09928,0.47683 -1.09928,1.10596 v 3.07285 h -2.76144 c -4.80768,0 -9.54254,1.18542 -13.64163,3.39071 -0.62912,0.31787 -0.78806,1.02649 -0.54966,1.5033 0.23178,0.39073 0.62912,0.62915 1.01981,0.62915 0.15893,0 0.39734,0 0.47681,-0.15895 3.86071,-2.04634 8.19824,-3.1523 12.6152,-3.1523 h 2.76144 v 11.35095 h -2.76144 c -8.59555,0 -15.45612,6.94037 -15.45612,15.45691 0,8.19864 6.31092,14.90061 14.35022,15.37743 v 11.27148 c -14.19128,-0.62912 -25.46222,-12.29797 -25.46222,-26.64891 0,-8.35759 3.78128,-16.00658 10.40345,-21.13238 0.47677,-0.39074 0.62909,-1.10596 0.23837,-1.57616 -0.23175,-0.32451 -0.56949,-0.48344 -0.90061,-0.48344 -0.24502,0 -0.48342,0.0795 -0.67544,0.24504 -3.47003,2.6821 -6.31094,6.15229 -8.27771,9.93373 -2.13236,4.10595 -3.07932,8.51654 -3.07932,13.01321 0,15.60922 12.30399,28.30455 27.75348,28.94029 v 1.80796 h -14.27075 c -1.9668,0 -3.47,1.58276 -3.47,3.47018 0,1.97351 1.57605,3.47019 3.47,3.47019 h 41.23621 c 1.97339,0 3.39053,-1.57615 3.39053,-3.47019 0,-1.88742 -1.57608,-3.47018 -3.39053,-3.47018 h -5.28449 c -0.54965,0 -1.01983,0.55627 -1.01983,1.10595 0,0.62912 0.47018,1.10596 1.01983,1.10596 h 5.28449 c 0.62909,0 1.26483,0.54965 1.26483,1.25827 0,0.70862 -0.63574,1.26489 -1.26483,1.26489 h -40.91834 c -0.70859,0 -1.26483,-0.55627 -1.26483,-1.26489 0,-0.70862 0.55624,-1.25827 1.26483,-1.25827 h 31.14401 c 0.54966,0 1.09928,-0.47684 1.09928,-1.10596 0,-0.54968 -0.54962,-1.10595 -1.09928,-1.10595 h -3.86734 v -2.04636 c 2.60251,-0.70862 4.417,-2.92053 4.417,-5.67548 h 0.3973 c 2.67536,0 4.96665,-2.21191 4.96665,-4.96687 0,-2.68211 -2.21182,-4.89403 -4.96665,-4.89403 h -16.71432 c -7.33734,0 -13.25095,-5.91388 -13.25095,-13.24498 0,-7.25163 5.91361,-13.16552 13.25095,-13.16552 h 2.75482 v 10.40394 c 0,0.63576 0.47681,1.10596 1.1059,1.10596 h 0.78805 v 4.80792 c 0,0.63576 0.47016,1.10596 1.02643,1.10596 h 3.07266 v 2.92052 c 0,0.62915 0.47681,1.09933 1.10593,1.09933 h 4.25803 c 0.54965,0 1.02645,-0.47018 1.02645,-1.09933 v -8.8344 h 0.78803 c 0.62912,0 1.09927,-0.4702 1.09927,-1.10596 v -29.25157 c 0,-0.62913 -0.47015,-1.10596 -1.09927,-1.10596 h -1.26483 v -2.44369 h 1.26483 c 0.62912,0 1.09927,-0.4702 1.09927,-1.09934 0,-0.63575 -0.47015,-1.10595 -1.09927,-1.10595 z"
         fill-rule="evenodd"
         id="path52" />
      <path
         fill="#e56a54"
         d="m 477.9054,211.94746 c 0.94696,0 1.57608,0.7086 1.57608,1.57616 0,0.86754 -0.62912,1.58278 -1.57608,1.58278 -0.86752,0 -1.57608,-0.71525 -1.57608,-1.58278 0,-0.86756 0.70856,-1.57616 1.57608,-1.57616 z m 0,-2.28476 c -2.04626,0 -3.78125,1.73509 -3.78125,3.86092 0,2.05296 1.65552,3.86754 3.78125,3.86754 2.13232,0 3.86734,-1.81458 3.86734,-3.86754 0,-2.04636 -1.65555,-3.86092 -3.86734,-3.86092 z"
         fill-rule="evenodd"
         id="path54" />
      <path
         fill="#e56a54"
         d="m 474.2036,252.79501 c 0.86749,0 1.57605,0.62914 1.57605,1.57616 0,0.86755 -0.70856,1.57615 -1.57605,1.57615 -0.86752,0 -1.5827,-0.7086 -1.5827,-1.57615 0,-0.94702 0.71518,-1.57616 1.5827,-1.57616 z m 0,-2.29138 c -2.05289,0 -3.86737,1.66224 -3.86737,3.86754 0,2.12581 1.65555,3.78145 3.86737,3.78145 2.1257,0 3.86072,-1.73511 3.86072,-3.78145 0,-2.13245 -1.73502,-3.86754 -3.86072,-3.86754 z"
         fill-rule="evenodd"
         id="path56" />
    </g>
  </g>
</svg>
