<?xml version="1.0" encoding="UTF-8" standalone="no"?>
<svg
   xmlns:dc="http://purl.org/dc/elements/1.1/"
   xmlns:cc="http://creativecommons.org/ns#"
   xmlns:rdf="http://www.w3.org/1999/02/22-rdf-syntax-ns#"
   xmlns:svg="http://www.w3.org/2000/svg"
   xmlns="http://www.w3.org/2000/svg"
   xmlns:sodipodi="http://sodipodi.sourceforge.net/DTD/sodipodi-0.dtd"
   xmlns:inkscape="http://www.inkscape.org/namespaces/inkscape"
   width="24.304886mm"
   height="19.988497mm"
   viewBox="0 0 24.304886 19.988497"
   version="1.1"
   id="svg1154"
   inkscape:version="1.0.1 (3bc2e813f5, 2020-09-07)"
   sodipodi:docname="brain-logo.svg">
  <defs
     id="defs1148" />
  <sodipodi:namedview
     id="base"
     pagecolor="#ffffff"
     bordercolor="#666666"
     borderopacity="1.0"
     inkscape:pageopacity="0.0"
     inkscape:pageshadow="2"
     inkscape:zoom="1.979899"
     inkscape:cx="-64.687294"
     inkscape:cy="28.490969"
     inkscape:document-units="mm"
     inkscape:current-layer="layer1"
     inkscape:document-rotation="0"
     showgrid="false"
     fit-margin-top="0"
     fit-margin-left="0"
     fit-margin-right="0"
     fit-margin-bottom="0"
     inkscape:window-width="1920"
     inkscape:window-height="1027"
     inkscape:window-x="-8"
     inkscape:window-y="-8"
     inkscape:window-maximized="1" />
  <metadata
     id="metadata1151">
    <rdf:RDF>
      <cc:Work
         rdf:about="">
        <dc:format>image/svg+xml</dc:format>
        <dc:type
           rdf:resource="http://purl.org/dc/dcmitype/StillImage" />
        <dc:title></dc:title>
      </cc:Work>
    </rdf:RDF>
  </metadata>
  <g
     inkscape:label="Layer 1"
     inkscape:groupmode="layer"
     id="layer1"
     transform="translate(-69.490415,-95.905234)">
    <g
       id="g1909">
      <path
         style="fill:none;stroke:#e56a54;stroke-width:0.265;stroke-linecap:butt;stroke-linejoin:round;stroke-miterlimit:4;stroke-dasharray:none;stroke-opacity:1"
         d="m 70.102087,96.915846 c 0,1.931545 0,1.931545 0,1.931545 h 3.309938 v 1.931539"
         id="path1879" />
      <path
         style="fill:none;stroke:#e56a54;stroke-width:0.265;stroke-linecap:butt;stroke-linejoin:round;stroke-miterlimit:4;stroke-dasharray:none;stroke-opacity:1"
         d="m 73.412025,112.03065 c 0,1.93154 0,1.93154 0,1.93154 h -3.309938 v 1.93154"
         id="path1877" />
      <path
         style="fill:none;stroke:#e56a54;stroke-width:0.265;stroke-linecap:butt;stroke-linejoin:round;stroke-miterlimit:4;stroke-dasharray:none;stroke-opacity:1"
         d="m 89.874394,112.03065 c 0,1.93154 0,1.93154 0,1.93154 h 3.309938 v 1.93154"
         id="path1875" />
      <path
         style="fill:none;stroke:#e56a54;stroke-width:0.265;stroke-linecap:butt;stroke-linejoin:round;stroke-miterlimit:4;stroke-dasharray:none;stroke-opacity:1"
         d="m 89.874393,100.77893 c 0,-1.931542 0,-1.931542 0,-1.931542 h 3.309938 v -1.931543"
         id="path1843" />
      <path
         fill="#000000"
         fill-opacity="0"
         d="m 73.412026,100.77893 v -1.93154 h -3.30994 v -1.931543"
         fill-rule="evenodd"
         id="path58"
         style="stroke-width:0.264583" />
      <path
         fill="#000000"
         fill-opacity="0"
         d="m 89.874393,100.77893 v -1.93154 h 3.30994 v -1.931543"
         fill-rule="evenodd"
         id="path62"
         style="stroke-width:0.264583" />
      <path
         fill="#000000"
         fill-opacity="0"
         d="m 73.412026,112.03065 v 1.93153 h -3.30994 v 1.93155"
         fill-rule="evenodd"
         id="path66"
         style="stroke-width:0.264583" />
      <path
         fill="#000000"
         fill-opacity="0"
         d="m 89.874393,112.03065 v 1.93153 h 3.30994 v 1.93155"
         fill-rule="evenodd"
         id="path70"
         style="stroke-width:0.264583" />
      <path
         fill="#000000"
         fill-opacity="0"
         d="M 71.970637,105.7763 H 69.490415"
         fill-rule="evenodd"
         id="path74"
         style="stroke-width:0.264583" />
      <path
         stroke="#e56a54"
         stroke-width="0.264583"
         stroke-linejoin="round"
         stroke-linecap="butt"
         d="M 71.970637,105.7763 H 69.490415"
         fill-rule="evenodd"
         id="path76" />
      <path
         fill="#000000"
         fill-opacity="0"
         d="M 93.795301,105.7763 H 91.315078"
         fill-rule="evenodd"
         id="path78"
         style="stroke-width:0.264583" />
      <path
         stroke="#e56a54"
         stroke-width="0.264583"
         stroke-linejoin="round"
         stroke-linecap="butt"
         d="M 93.795301,105.7763 H 91.315078"
         fill-rule="evenodd"
         id="path80" />
      <path
         fill="#e56a54"
         d="m 79.849701,96.336603 c 1.158333,0 1.209704,1.53792 1.210929,1.598671 v 15.362086 c -0.179398,0.17042 -0.890463,0.72696 -2.511557,0.72696 -1.994567,0 -3.028545,-1.20685 -3.168393,-2.40229 -0.01061,-0.0844 -0.07135,-0.15534 -0.152895,-0.18062 -0.04893,-0.0143 -1.183203,-0.37184 -1.159558,-1.62232 0.009,-0.46031 0.06075,-0.78078 0.164719,-1.0038 0,0 0.095,-0.14108 0.09622,-0.1582 0.02244,-0.0294 0.04648,-0.0554 0.07258,-0.0795 0.220577,-0.20997 0.612396,-0.30456 1.287174,-0.30456 0.09255,0 0.189994,0.002 0.29315,0.005 0.501089,0.0163 1.052327,0.024 1.642705,0.024 0.0844,0 0.169611,0 0.255641,-5.3e-4 h 0.0053 c 7.94e-4,0 0.0016,0 0.0024,0 0.70984,0 1.284726,0.57611 1.284726,1.28636 v 0.78853 c -0.0024,0.1215 0.095,0.2218 0.216501,0.2218 0.121502,0 0.220168,-0.1003 0.216498,-0.2218 v -0.78853 c 0,-0.94917 -0.769366,-1.71895 -1.717725,-1.71895 -7.94e-4,0 -0.0016,0 -0.0024,0 h -0.0065 c -0.07747,5.3e-4 -0.154123,5.3e-4 -0.229958,5.3e-4 -0.594862,0 -1.14977,-0.009 -1.653714,-0.0241 -0.105598,-0.004 -0.205896,-0.005 -0.301302,-0.005 -0.808509,0 -1.280242,0.12721 -1.589297,0.42199 -0.03139,0.0289 -0.06034,0.0608 -0.08684,0.0926 -0.765286,-0.41832 -0.749387,-1.51183 -0.749387,-1.52365 v -0.005 -2.16744 c 0,-0.60791 0.149227,-1.05396 0.44197,-1.32836 0.30049,-0.27888 0.67763,-0.29845 0.778743,-0.29845 0.0163,0 0.02569,5.3e-4 0.02609,5.3e-4 0.0061,7.9e-4 0.01222,7.9e-4 0.01794,7.9e-4 0.117422,0 0.215275,-0.0954 0.215275,-0.21568 v -1.99049 c 0,-0.40364 0.1109,-0.71228 0.329846,-0.918182 0.304567,-0.287443 0.744093,-0.30783 0.865999,-0.30783 0.01998,0 0.03139,5.3e-4 0.03221,5.3e-4 0.0053,5.29e-4 0.01019,5.29e-4 0.01508,5.29e-4 0.199787,0 0.293561,-0.252786 0.135366,-0.38285 -0.07502,-0.06197 -0.14107,-0.154524 -0.06442,-0.37184 0.152892,-0.427699 0.791382,-1.060889 1.627616,-1.609272 0.830935,-0.547569 1.677768,-0.90106 2.159289,-0.90106 z m -0.0013,-0.431369 c -1.254556,0 -3.801586,1.698972 -4.193405,2.797773 -0.06319,0.178176 -0.07543,0.34575 -0.0371,0.49457 -0.246671,0.0424 -0.56836,0.146368 -0.832157,0.393039 -0.311497,0.29152 -0.468471,0.708614 -0.468471,1.237434 v 1.78214 c -0.229545,0.0265 -0.585486,0.11457 -0.89535,0.39957 -0.388152,0.35757 -0.585894,0.91288 -0.585894,1.64882 v 2.16458 c -0.0013,0.0926 -0.0094,1.37321 0.964258,1.9061 -0.102748,0.27072 -0.155752,0.62014 -0.164719,1.08168 -0.02529,1.29696 0.965481,1.83759 1.333244,1.99334 0.113752,0.69924 0.479068,1.3361 1.03683,1.80702 0.655617,0.55286 1.534253,0.84561 2.543361,0.84561 2.134414,0 2.86627,-0.90107 2.896851,-0.93898 0.03017,-0.0383 0.04607,-0.0844 0.04607,-0.13332 V 97.929974 c -0.01468,-0.700463 -0.377142,-2.02474 -1.64352,-2.02474 z"
         fill-rule="evenodd"
         id="path82"
         style="stroke-width:0.264583" />
      <path
         fill="#e56a54"
         d="m 81.282637,110.16654 c -0.0024,0 -0.0049,0 -0.0073,0 h -2.823871 c -0.973635,0.001 -1.763798,0.79017 -1.763798,1.7638 v 0.0697 c 0,0.11865 0.09622,0.2165 0.214868,0.2165 0.120277,0 0.217726,-0.0979 0.216501,-0.2165 v -0.0697 c 0.0013,-0.73512 0.59772,-1.33121 1.332429,-1.33121 h 2.823871 c 0.0016,0 0.0033,0 0.0049,0 0.119462,0 0.218133,-0.0966 0.218133,-0.21609 0,-0.12028 -0.09745,-0.2165 -0.215686,-0.2165 z"
         fill-rule="evenodd"
         id="path86"
         style="stroke-width:0.264583" />
      <path
         fill="#e56a54"
         d="m 74.532545,102.6021 c -0.1162,0.002 -0.209976,0.0987 -0.209976,0.21609 0,0.11742 0.09378,0.21242 0.209976,0.2165 h 1.820063 c 0.894535,0 1.617424,0.72411 1.618647,1.61824 v 1.06741 c 0,0.11987 0.09745,0.21609 0.2165,0.21609 0.118648,0 0.216094,-0.0962 0.216094,-0.21487 v -1.06863 c -0.0013,-1.13306 -0.918187,-2.04961 -2.051241,-2.05083 z"
         fill-rule="evenodd"
         id="path90"
         style="stroke-width:0.264583" />
      <path
         fill="#e56a54"
         d="m 78.182265,104.64508 c -0.117422,0.004 -0.211198,0.0991 -0.211198,0.2165 0,0.11742 0.09378,0.21201 0.211198,0.21609 h 3.039147 c 0.117422,-0.004 0.209569,-0.0987 0.209569,-0.21609 0,-0.11743 -0.09215,-0.21243 -0.209569,-0.2165 z"
         fill-rule="evenodd"
         id="path94"
         style="stroke-width:0.264583" />
      <path
         fill="#e56a54"
         d="m 77.812941,105.67125 c -0.650316,0 -1.176681,0.52759 -1.177903,1.1779 v 0.22425 c 0.0037,0.1162 0.09867,0.20998 0.216093,0.20998 0.117422,0 0.213645,-0.0938 0.216498,-0.20998 v -0.22425 c 0,-0.41139 0.333515,-0.74531 0.745312,-0.74653 h 0.725334 c 0.424847,0.001 0.768959,0.34412 0.768959,0.76896 v 0.31517 c 0,0.12028 0.09785,0.2165 0.216501,0.2165 0.119869,0 0.2165,-0.0962 0.2165,-0.2165 v -0.31517 c -0.0016,-0.66213 -0.538191,-1.20033 -1.20196,-1.20033 z"
         fill-rule="evenodd"
         id="path98"
         style="stroke-width:0.264583" />
      <path
         fill="#e56a54"
         d="m 78.47023,99.169679 c -0.0024,0 -0.0045,0 -0.0069,0 H 75.9901 c -0.117422,0.0029 -0.209976,0.09908 -0.209976,0.215276 0,0.117425 0.09255,0.213646 0.209976,0.216093 h 2.47323 c 0.0024,0 0.0045,5.29e-4 0.0069,5.29e-4 0.118242,0 0.214461,-0.09622 0.214461,-0.2165 0,-0.119052 -0.09622,-0.215276 -0.214461,-0.215276 z"
         fill-rule="evenodd"
         id="path102"
         style="stroke-width:0.264583" />
      <path
         fill="#e56a54"
         d="m 79.971328,97.936388 c -0.0024,0 -0.0049,0 -0.0069,0 H 79.60808 c -0.751835,0 -1.360152,0.609544 -1.361377,1.360156 v 0.209569 c 0.0013,0.733487 0.594866,1.328357 1.328351,1.328357 h 1.642298 c 0.117422,-0.002 0.211199,-0.0987 0.211199,-0.2161 0,-0.11742 -0.09378,-0.21242 -0.211199,-0.2165 h -1.642298 c -0.494564,0 -0.895762,-0.40079 -0.895762,-0.895757 v -0.209569 c 0,-0.511691 0.41547,-0.927565 0.928788,-0.928788 h 0.356348 c 0.0021,0 0.0045,5.3e-4 0.0069,5.3e-4 0.118237,0 0.21446,-0.09622 0.21446,-0.216501 0,-0.119052 -0.09622,-0.215276 -0.21446,-0.215276 z"
         fill-rule="evenodd"
         id="path106"
         style="stroke-width:0.264583" />
      <path
         fill="#e56a54"
         d="m 83.634788,96.336603 c -1.158333,0 -1.209704,1.53792 -1.210929,1.598671 v 15.362086 c 0.179398,0.17042 0.890463,0.72696 2.511557,0.72696 1.994567,0 3.028545,-1.20685 3.168393,-2.40229 0.01061,-0.0844 0.07135,-0.15534 0.152895,-0.18062 0.04893,-0.0143 1.183204,-0.37184 1.159555,-1.62232 -0.009,-0.46031 -0.06075,-0.78078 -0.164719,-1.0038 0,0 -0.095,-0.14108 -0.09622,-0.1582 -0.02244,-0.0294 -0.04648,-0.0554 -0.07258,-0.0795 -0.220575,-0.20997 -0.612394,-0.30456 -1.287171,-0.30456 -0.09255,0 -0.189995,0.002 -0.293151,0.005 -0.501089,0.0163 -1.052327,0.024 -1.642705,0.024 -0.0844,0 -0.169611,0 -0.255641,-5.3e-4 h -0.0053 c -7.94e-4,0 -0.0016,0 -0.0024,0 -0.709841,0 -1.284727,0.57611 -1.284727,1.28636 v 0.78853 c 0.0024,0.1215 -0.095,0.2218 -0.216498,0.2218 -0.121502,0 -0.220171,-0.1003 -0.216501,-0.2218 v -0.78853 c 0,-0.94917 0.769369,-1.71895 1.717726,-1.71895 7.93e-4,0 0.0016,0 0.0024,0 h 0.0065 c 0.07747,5.3e-4 0.154122,5.3e-4 0.229957,5.3e-4 0.594863,0 1.149768,-0.009 1.65371,-0.0241 0.105603,-0.004 0.205898,-0.005 0.301307,-0.005 0.808509,0 1.280242,0.12721 1.589291,0.42199 0.0314,0.0289 0.06034,0.0608 0.08684,0.0926 0.765292,-0.41832 0.74939,-1.51183 0.74939,-1.52365 v -0.005 -2.16744 c 0,-0.60791 -0.149225,-1.05396 -0.441968,-1.32836 -0.300489,-0.27888 -0.677629,-0.29845 -0.778742,-0.29845 -0.0163,0 -0.02569,5.3e-4 -0.02609,5.3e-4 -0.0061,7.9e-4 -0.01222,7.9e-4 -0.01794,7.9e-4 -0.117425,0 -0.215276,-0.0954 -0.215276,-0.21568 v -1.99049 c 0,-0.40364 -0.110902,-0.71228 -0.329845,-0.918182 -0.304567,-0.287443 -0.744093,-0.30783 -0.866,-0.30783 -0.01998,0 -0.03139,5.3e-4 -0.03221,5.3e-4 -0.0053,5.29e-4 -0.01019,5.29e-4 -0.01508,5.29e-4 -0.199782,0 -0.293558,-0.252786 -0.135364,-0.38285 0.07502,-0.06197 0.141073,-0.154524 0.06442,-0.37184 -0.152892,-0.427699 -0.791382,-1.060889 -1.627616,-1.609272 -0.830937,-0.547569 -1.677768,-0.90106 -2.159289,-0.90106 z m 0.0013,-0.431369 c 1.254556,0 3.801586,1.698972 4.193402,2.797773 0.0632,0.178176 0.07543,0.34575 0.0371,0.49457 0.246673,0.0424 0.568362,0.146368 0.832159,0.393039 0.311497,0.29152 0.468466,0.708614 0.468466,1.237434 v 1.78214 c 0.22955,0.0265 0.585486,0.11457 0.895356,0.39957 0.388151,0.35757 0.585893,0.91288 0.585893,1.64882 v 2.16458 c 0.0013,0.0926 0.0094,1.37321 -0.964258,1.9061 0.102748,0.27072 0.155749,0.62014 0.164719,1.08168 0.02529,1.29696 -0.965481,1.83759 -1.333244,1.99334 -0.113752,0.69924 -0.479073,1.3361 -1.03683,1.80702 -0.655616,0.55286 -1.534253,0.84561 -2.54336,0.84561 -2.134415,0 -2.866274,-0.90107 -2.896852,-0.93898 -0.03017,-0.0383 -0.04607,-0.0844 -0.04607,-0.13332 V 97.929974 c 0.01468,-0.700463 0.377142,-2.02474 1.64352,-2.02474 z"
         fill-rule="evenodd"
         id="path110"
         style="stroke-width:0.264583" />
      <path
         fill="#e56a54"
         d="m 82.201852,110.16654 c 0.0024,0 0.0049,0 0.0073,0 h 2.823872 c 0.973635,0.001 1.763797,0.79017 1.763797,1.7638 v 0.0697 c 0,0.11865 -0.09622,0.2165 -0.214868,0.2165 -0.120277,0 -0.217726,-0.0979 -0.216501,-0.2165 v -0.0697 c -0.0013,-0.73512 -0.59772,-1.33121 -1.332428,-1.33121 h -2.823872 c -0.0016,0 -0.0033,0 -0.0049,0 -0.119462,0 -0.218133,-0.0966 -0.218133,-0.21609 0,-0.12028 0.09745,-0.2165 0.215686,-0.2165 z"
         fill-rule="evenodd"
         id="path114"
         style="stroke-width:0.264583" />
      <path
         fill="#e56a54"
         d="m 88.951945,102.6021 c 0.116199,0.002 0.209976,0.0987 0.209976,0.21609 0,0.11742 -0.09378,0.21242 -0.209976,0.2165 h -1.820064 c -0.89454,0 -1.617424,0.72411 -1.618647,1.61824 v 1.06741 c 0,0.11987 -0.09745,0.21609 -0.2165,0.21609 -0.118647,0 -0.216093,-0.0962 -0.216093,-0.21487 v -1.06863 c 0.0013,-1.13306 0.918186,-2.04961 2.05124,-2.05083 z"
         fill-rule="evenodd"
         id="path118"
         style="stroke-width:0.264583" />
      <path
         fill="#e56a54"
         d="m 85.302224,104.64508 c 0.117422,0.004 0.211198,0.0991 0.211198,0.2165 0,0.11742 -0.09378,0.21201 -0.211198,0.21609 h -3.039147 c -0.117422,-0.004 -0.209569,-0.0987 -0.209569,-0.21609 0,-0.11743 0.09215,-0.21243 0.209569,-0.2165 z"
         fill-rule="evenodd"
         id="path122"
         style="stroke-width:0.264583" />
      <path
         fill="#e56a54"
         d="m 85.67155,105.67125 c 0.650312,0 1.176682,0.52759 1.177904,1.1779 v 0.22425 c -0.0037,0.1162 -0.09867,0.20998 -0.216093,0.20998 -0.117422,0 -0.213646,-0.0938 -0.216498,-0.20998 v -0.22425 c 0,-0.41139 -0.333515,-0.74531 -0.745313,-0.74653 h -0.725334 c -0.424846,0.001 -0.768963,0.34412 -0.768963,0.76896 v 0.31517 c 0,0.12028 -0.09785,0.2165 -0.216496,0.2165 -0.119872,0 -0.2165,-0.0962 -0.2165,-0.2165 v -0.31517 c 0.0016,-0.66213 0.538191,-1.20033 1.201959,-1.20033 z"
         fill-rule="evenodd"
         id="path126"
         style="stroke-width:0.264583" />
      <path
         fill="#e56a54"
         d="m 85.014257,99.169679 c 0.0024,0 0.0045,0 0.0069,0 h 2.473229 c 0.117428,0.0029 0.209976,0.09908 0.209976,0.215276 0,0.117425 -0.09255,0.213646 -0.209976,0.216093 h -2.473229 c -0.0024,0 -0.0045,5.29e-4 -0.0069,5.29e-4 -0.118237,0 -0.214458,-0.09622 -0.214458,-0.2165 0,-0.119052 0.09622,-0.215276 0.214458,-0.215276 z"
         fill-rule="evenodd"
         id="path130"
         style="stroke-width:0.264583" />
      <path
         fill="#e56a54"
         d="m 83.513162,97.936388 c 0.0024,0 0.0049,0 0.0069,0 h 0.356346 c 0.751835,0 1.360154,0.609544 1.361379,1.360156 v 0.209569 c -0.0013,0.733487 -0.594865,1.328357 -1.328351,1.328357 H 82.26717 c -0.117427,-0.002 -0.211198,-0.0987 -0.211198,-0.2161 0,-0.11742 0.09377,-0.21242 0.211198,-0.2165 h 1.642298 c 0.494564,0 0.895757,-0.40079 0.895757,-0.895757 v -0.209569 c 0,-0.511691 -0.415464,-0.927565 -0.928785,-0.928788 h -0.356346 c -0.0021,0 -0.0045,5.3e-4 -0.0069,5.3e-4 -0.118237,0 -0.214461,-0.09622 -0.214461,-0.216501 0,-0.119052 0.09622,-0.215276 0.214461,-0.215276 z"
         fill-rule="evenodd"
         id="path134"
         style="stroke-width:0.264583" />
    </g>
  </g>
</svg>
