<?xml version="1.0" encoding="UTF-8" standalone="no"?>
<svg
   xmlns:dc="http://purl.org/dc/elements/1.1/"
   xmlns:cc="http://creativecommons.org/ns#"
   xmlns:rdf="http://www.w3.org/1999/02/22-rdf-syntax-ns#"
   xmlns:svg="http://www.w3.org/2000/svg"
   xmlns="http://www.w3.org/2000/svg"
   xmlns:sodipodi="http://sodipodi.sourceforge.net/DTD/sodipodi-0.dtd"
   xmlns:inkscape="http://www.inkscape.org/namespaces/inkscape"
   width="33.459576mm"
   height="33.276649mm"
   viewBox="0 0 33.459576 33.276649"
   version="1.1"
   id="svg1872"
   inkscape:version="1.0.1 (3bc2e813f5, 2020-09-07)"
   sodipodi:docname="icon-chip.svg">
  <defs
     id="defs1866" />
  <sodipodi:namedview
     id="base"
     pagecolor="#ffffff"
     bordercolor="#666666"
     borderopacity="1.0"
     inkscape:pageopacity="0.0"
     inkscape:pageshadow="2"
     inkscape:zoom="2.8"
     inkscape:cx="79.493526"
     inkscape:cy="92.508267"
     inkscape:document-units="mm"
     inkscape:current-layer="layer1"
     inkscape:document-rotation="0"
     showgrid="false"
     fit-margin-top="0"
     fit-margin-left="0"
     fit-margin-right="0"
     fit-margin-bottom="0"
     inkscape:window-width="1920"
     inkscape:window-height="1027"
     inkscape:window-x="-8"
     inkscape:window-y="-8"
     inkscape:window-maximized="1" />
  <metadata
     id="metadata1869">
    <rdf:RDF>
      <cc:Work
         rdf:about="">
        <dc:format>image/svg+xml</dc:format>
        <dc:type
           rdf:resource="http://purl.org/dc/dcmitype/StillImage" />
        <dc:title></dc:title>
      </cc:Work>
    </rdf:RDF>
  </metadata>
  <g
     inkscape:label="Layer 1"
     inkscape:groupmode="layer"
     id="layer1"
     transform="translate(-96.663076,-101.29025)">
    <g
       id="g2508">
      <path
         fill="#e56a54"
         d="m 108.10616,102.19951 c 0.18309,0 0.29294,0.14341 0.29294,0.32648 0,0.18002 -0.10985,0.32648 -0.29294,0.32648 -0.18004,0 -0.32652,-0.14646 -0.32652,-0.32648 0.0366,-0.18307 0.1831,-0.32648 0.32652,-0.32648 z m 5.30654,0 c 0.18003,0 0.3265,0.14341 0.3265,0.32648 0,0.18002 -0.14647,0.32648 -0.3265,0.32648 -0.1831,0 -0.32957,-0.14646 -0.32957,-0.32648 0,-0.18307 0.14647,-0.32648 0.32957,-0.32648 z m 5.26686,0 c 0.1831,0 0.32651,0.14341 0.32651,0.32648 0,0.18002 -0.14341,0.32648 -0.32651,0.32648 -0.18309,0 -0.32651,-0.14646 -0.32651,-0.32648 0,-0.18307 0.14342,-0.32648 0.32651,-0.32648 z m -20.817244,10.17278 c 0.18003,0 0.3265,0.14341 0.3265,0.32648 0,0.18003 -0.14647,0.32648 -0.3265,0.32648 -0.1831,0 -0.32652,-0.14645 -0.32652,-0.32648 0,-0.18307 0.14342,-0.32648 0.32652,-0.32648 z m 31.027524,0.0702 c 0.18004,0 0.32651,0.10984 0.32651,0.32953 0,0.18002 -0.14647,0.28987 -0.32651,0.28987 -0.18308,0 -0.32955,-0.10985 -0.32955,-0.28987 0,-0.21969 0.14647,-0.32953 0.32955,-0.32953 z m -31.027524,5.26946 c 0.18003,0 0.3265,0.10679 0.3265,0.28987 0,0.21663 -0.14647,0.32648 -0.3265,0.32648 -0.1831,0 -0.32652,-0.10985 -0.32652,-0.32648 0,-0.18308 0.14342,-0.28987 0.32652,-0.28987 z m 31.027524,0 c 0.18004,0 0.32651,0.14341 0.32651,0.32648 0,0.18002 -0.14647,0.28987 -0.32651,0.28987 -0.18308,0 -0.32955,-0.10985 -0.32955,-0.28987 0,-0.18307 0.14647,-0.32648 0.32955,-0.32648 z m -31.027524,5.26642 c 0.18003,0 0.3265,0.10984 0.3265,0.32648 0,0.18307 -0.14647,0.29292 -0.3265,0.29292 -0.1831,0 -0.32652,-0.10985 -0.32652,-0.29292 0,-0.21664 0.14342,-0.32648 0.32652,-0.32648 z m 31.027524,0.0366 c 0.18004,0 0.32651,0.14646 0.32651,0.32648 0,0.18307 -0.14647,0.32648 -0.32651,0.32648 -0.18308,0 -0.32955,-0.14341 -0.32955,-0.32648 0,-0.18002 0.14647,-0.32648 0.32955,-0.32648 z m -20.78368,10.17278 c 0.18309,0 0.29294,0.14341 0.29294,0.32648 0,0.18307 -0.10985,0.32648 -0.29294,0.32648 -0.18004,0 -0.32652,-0.14341 -0.32652,-0.32648 0,-0.18307 0.10987,-0.32648 0.32652,-0.32648 z m 5.30654,0 c 0.18004,0 0.32651,0.14341 0.32651,0.32648 0,0.18307 -0.18309,0.32648 -0.32651,0.32648 -0.1831,0 -0.32957,-0.14341 -0.32957,-0.32648 0,-0.18307 0.14647,-0.32648 0.32957,-0.32648 z m 5.26686,0 c 0.1831,0 0.32652,0.14341 0.32652,0.32648 0,0.18307 -0.14342,0.32648 -0.32652,0.32648 -0.18309,0 -0.3265,-0.14341 -0.3265,-0.32648 0,-0.18307 0.14341,-0.32648 0.3265,-0.32648 z m -10.39031,-31.89749 c -0.76287,0 -1.27247,0.61939 -1.27247,1.27235 0,0.54312 0.28989,1.01606 0.79949,1.19914 v 2.83153 h -5.16007 c -0.28989,0 -0.50655,0.21969 -0.50655,0.47294 v 5.19623 h -3.051484 c -0.18309,-0.47293 -0.61946,-0.83603 -1.16262,-0.83603 -0.72931,0 -1.27247,0.61635 -1.27247,1.27236 0,0.72619 0.57978,1.26931 1.27247,1.26931 0.54316,0 0.97953,-0.32648 1.16262,-0.79942 h 2.831784 v 4.32358 h -2.831784 c -0.18309,-0.46988 -0.61946,-0.83603 -1.16262,-0.83603 -0.72931,0 -1.27247,0.58278 -1.27247,1.27236 0,0.72619 0.57978,1.27236 1.27247,1.27236 0.54316,0 0.97953,-0.32648 1.16262,-0.79942 h 2.831784 v 4.28696 h -2.831784 c -0.18309,-0.43631 -0.61946,-0.79941 -1.16262,-0.79941 -0.72931,0 -1.27247,0.57973 -1.27247,1.27236 0,0.72619 0.57978,1.26931 1.27247,1.26931 0.54316,0 0.97953,-0.32648 1.16262,-0.83298 h 2.831784 v 5.19318 c 0,0.2563 0.2197,0.50955 0.47298,0.50955 h 5.19668 v 2.79797 c -0.47298,0.18002 -0.83611,0.65297 -0.83611,1.19913 0,0.72619 0.6164,1.26931 1.26943,1.26931 0.7293,0 1.27246,-0.61634 1.27246,-1.26931 0,-0.54616 -0.28989,-1.01911 -0.79949,-1.19913 v -2.79797 h 4.32396 v 2.79797 c -0.47298,0.18002 -0.83611,0.65297 -0.83611,1.19913 0,0.72619 0.58284,1.26931 1.27247,1.26931 0.72626,0 1.27248,-0.61634 1.27248,-1.26931 0,-0.54616 -0.32652,-1.01911 -0.7995,-1.19913 v -2.79797 h 4.28735 v 2.79797 c -0.43637,0.18002 -0.79949,0.65297 -0.79949,1.19913 0,0.72619 0.57977,1.26931 1.26941,1.26931 0.69269,0 1.27248,-0.61634 1.27248,-1.26931 0,-0.54616 -0.32651,-1.01911 -0.83611,-1.19913 v -2.79797 h 5.19668 c 0.25328,0 0.50959,-0.25325 0.50959,-0.50955 v -5.19318 h 2.79517 c 0.18309,0.46988 0.65608,0.83298 1.19924,0.83298 0.72625,0 1.27247,-0.57974 1.27247,-1.26931 0,-0.72619 -0.6164,-1.27236 -1.27247,-1.27236 -0.54316,0 -1.01615,0.32648 -1.19924,0.79941 h -2.79517 l 0.21667,-4.17711 h 2.79822 c 0.18002,0.46988 0.65301,0.83603 1.19923,0.83603 0.72625,0 1.26942,-0.58279 1.26942,-1.27236 0,-0.72619 -0.57978,-1.27236 -1.26942,-1.27236 -0.54622,0 -1.01921,0.32648 -1.19923,0.79941 h -2.79822 v -4.39681 h 2.79822 c 0.18002,0.47294 0.65301,0.83604 1.19923,0.83604 0.72625,0 1.26942,-0.61635 1.26942,-1.26931 0,-0.72924 -0.57978,-1.27236 -1.26942,-1.27236 -0.54622,0 -1.01921,0.28987 -1.19923,0.79942 h -2.79822 v -5.15962 c 0,-0.28986 -0.21667,-0.50955 -0.50961,-0.50955 h -2.0689 c -0.29294,0 -0.5096,0.21969 -0.5096,0.50955 0,0.25325 0.21666,0.47294 0.5096,0.47294 h 1.63254 v 5.15962 5.26641 5.26642 5.15962 h -20.99728 v -5.15962 -5.26642 -5.26641 -5.19623 h 17.40263 c 0.25327,0 0.50655,-0.21969 0.50655,-0.50956 0,-0.25325 -0.25328,-0.47294 -0.50655,-0.47294 h -1.126 v -2.83153 c 0.43636,-0.18308 0.79949,-0.65602 0.79949,-1.19914 0,-0.72619 -0.58283,-1.27236 -1.27247,-1.27236 -0.72625,0 -1.27247,0.6194 -1.27247,1.27236 0,0.54312 0.32651,1.01606 0.83611,1.19914 v 2.83153 h -4.32396 v -2.83153 c 0.43637,-0.18308 0.79949,-0.65602 0.79949,-1.19914 0,-0.72619 -0.57979,-1.27236 -1.27247,-1.27236 -0.72625,0 -1.26942,0.6194 -1.26942,1.27236 0,0.54312 0.32651,1.01606 0.83611,1.19914 v 2.83153 h -4.32396 v -2.83153 c 0.46993,-0.18308 0.79949,-0.65602 0.79949,-1.19914 0,-0.72619 -0.58283,-1.27236 -1.23585,-1.27236 z"
         fill-rule="evenodd"
         id="path56"
         style="stroke-width:0.264583" />
      <path
         fill="#e56a54"
         d="m 104.03852,108.1555 c -0.25632,0 -0.47298,0.2563 -0.47298,0.50956 v 13.66033 c 0,0.28986 0.21666,0.50955 0.47298,0.50955 0.2899,0 0.50655,-0.21969 0.50655,-0.50955 v -13.15078 h 17.7322 v 17.691 h -17.7322 v -2.57829 c 0,-0.2563 -0.21665,-0.50955 -0.50655,-0.50955 -0.25632,0 -0.47298,0.25325 -0.47298,0.50955 v 3.08784 c 0,0.28987 0.21666,0.50955 0.47298,0.50955 h 18.70867 c 0.29296,0 0.50961,-0.21968 0.50961,-0.50955 v -18.7101 c -0.0366,-0.25326 -0.21665,-0.50956 -0.50961,-0.50956 z"
         fill-rule="evenodd"
         id="path58"
         style="stroke-width:0.264583" />
      <path
         fill="#e56a54"
         d="m 110.03165,114.15115 c -0.25327,0 -0.46994,0.25325 -0.46994,0.50956 v 6.71879 c 0,0.29292 0.21667,0.50956 0.46994,0.50956 h 2.61817 c 0.25327,0 0.46993,-0.21664 0.46993,-0.50956 0,-0.25325 -0.21666,-0.5065 -0.46993,-0.5065 h -2.10858 v -5.7424 h 5.77647 v 5.7424 h -1.77902 c -0.25632,0 -0.5096,0.25325 -0.5096,0.5065 0,0.29292 0.25328,0.50956 0.5096,0.50956 h 2.17876 c 0.2899,0 0.50961,-0.21664 0.50961,-0.50956 v -6.71879 c 0.0366,-0.25631 -0.18309,-0.50956 -0.47299,-0.50956 z"
         fill-rule="evenodd"
         id="path60"
         style="stroke-width:0.264583" />
      <path
         fill="#e56a54"
         d="m 106.54379,110.6636 c -0.25327,0 -0.50654,0.21664 -0.50654,0.50956 v 0.76281 c 0,0.28986 0.25327,0.5065 0.50654,0.5065 h 0.76288 c 0.29294,0 0.5096,-0.21664 0.5096,-0.5065 v -0.76281 c 0,-0.29292 -0.21666,-0.50956 -0.5096,-0.50956 z"
         fill-rule="evenodd"
         id="path62"
         style="stroke-width:0.264583" />
      <path
         fill="#e56a54"
         d="m 109.08874,110.6636 c -0.25633,0 -0.50961,0.21664 -0.50961,0.50956 v 0.76281 c 0,0.28986 0.25328,0.5065 0.50961,0.5065 h 0.76287 c 0.28989,0 0.50654,-0.21664 0.50654,-0.5065 v -0.76281 c 0.0366,-0.29292 -0.18003,-0.50956 -0.4333,-0.50956 z"
         fill-rule="evenodd"
         id="path64"
         style="stroke-width:0.264583" />
      <path
         fill="#e56a54"
         d="m 111.74048,110.6636 c -0.28989,0 -0.5096,0.21664 -0.5096,0.50956 v 0.76281 c 0,0.28986 0.21971,0.5065 0.5096,0.5065 h 0.76287 c 0.25328,0 0.5096,-0.21664 0.5096,-0.5065 v -0.76281 c 0,-0.29292 -0.25632,-0.50956 -0.5096,-0.50956 z"
         fill-rule="evenodd"
         id="path66"
         style="stroke-width:0.264583" />
      <path
         fill="#e56a54"
         d="m 114.31899,110.6636 c -0.2899,0 -0.50655,0.21664 -0.50655,0.50956 v 0.76281 c 0,0.28986 0.21665,0.5065 0.50655,0.5065 h 0.76286 c 0.29295,0 0.5096,-0.21664 0.5096,-0.5065 v -0.76281 c 0,-0.29292 -0.21665,-0.50956 -0.5096,-0.50956 z"
         fill-rule="evenodd"
         id="path68"
         style="stroke-width:0.264583" />
      <path
         fill="#e56a54"
         d="m 116.90054,110.6636 c -0.29294,0 -0.50959,0.21664 -0.50959,0.50956 v 0.76281 c 0,0.28986 0.21665,0.5065 0.50959,0.5065 h 0.76287 c 0.2899,0 0.50655,-0.21664 0.50655,-0.5065 v -0.76281 c 0,-0.29292 -0.21665,-0.50956 -0.50655,-0.50956 z"
         fill-rule="evenodd"
         id="path70"
         style="stroke-width:0.264583" />
      <path
         fill="#e56a54"
         d="m 119.47905,110.6636 c -0.25327,0 -0.47298,0.21664 -0.47298,0.50956 v 0.76281 c 0,0.28986 0.21971,0.5065 0.47298,0.5065 h 0.79949 c 0.25327,0 0.47299,-0.21664 0.47299,-0.5065 v -0.76281 c 0,-0.29292 -0.21972,-0.50956 -0.47299,-0.50956 z"
         fill-rule="evenodd"
         id="path72"
         style="stroke-width:0.264583" />
      <path
         fill="#e56a54"
         d="m 106.54379,123.59775 c -0.25327,0 -0.50654,0.25324 -0.50654,0.5065 v 0.7628 c 0,0.29292 0.25327,0.50956 0.50654,0.50956 h 0.76288 c 0.29294,0 0.5096,-0.21664 0.5096,-0.50956 v -0.7628 c 0,-0.25326 -0.21666,-0.5065 -0.5096,-0.5065 z"
         fill-rule="evenodd"
         id="path74"
         style="stroke-width:0.264583" />
      <path
         fill="#e56a54"
         d="m 109.08874,123.59775 c -0.25633,0 -0.50961,0.25324 -0.50961,0.5065 v 0.7628 c 0,0.29292 0.25328,0.50956 0.50961,0.50956 h 0.76287 c 0.28989,0 0.50654,-0.21664 0.50654,-0.50956 v -0.7628 c 0.0366,-0.25326 -0.18003,-0.5065 -0.4333,-0.5065 z"
         fill-rule="evenodd"
         id="path76"
         style="stroke-width:0.264583" />
      <path
         fill="#e56a54"
         d="m 111.74048,123.59775 c -0.28989,0 -0.5096,0.25324 -0.5096,0.5065 v 0.7628 c 0,0.29292 0.21971,0.50956 0.5096,0.50956 h 0.76287 c 0.25328,0 0.5096,-0.21664 0.5096,-0.50956 v -0.7628 c 0,-0.25326 -0.25632,-0.5065 -0.5096,-0.5065 z"
         fill-rule="evenodd"
         id="path78"
         style="stroke-width:0.264583" />
      <path
         fill="#e56a54"
         d="m 114.31899,123.59775 c -0.2899,0 -0.50655,0.25324 -0.50655,0.5065 v 0.7628 c 0,0.29292 0.21665,0.50956 0.50655,0.50956 h 0.76286 c 0.29295,0 0.5096,-0.21664 0.5096,-0.50956 v -0.7628 c 0,-0.25326 -0.21665,-0.5065 -0.5096,-0.5065 z"
         fill-rule="evenodd"
         id="path80"
         style="stroke-width:0.264583" />
      <path
         fill="#e56a54"
         d="m 116.90054,123.59775 c -0.29294,0 -0.50959,0.25324 -0.50959,0.5065 v 0.7628 c 0,0.29292 0.21665,0.50956 0.50959,0.50956 h 0.76287 c 0.2899,0 0.50655,-0.21664 0.50655,-0.50956 v -0.7628 c 0,-0.25326 -0.21665,-0.5065 -0.50655,-0.5065 z"
         fill-rule="evenodd"
         id="path82"
         style="stroke-width:0.264583" />
      <path
         fill="#e56a54"
         d="m 119.47905,123.59775 c -0.25327,0 -0.47298,0.25324 -0.47298,0.5065 v 0.7628 c 0,0.29292 0.21971,0.50956 0.47298,0.50956 h 0.79949 c 0.25327,0 0.47299,-0.21664 0.47299,-0.50956 v -0.7628 c 0,-0.25326 -0.21972,-0.5065 -0.47299,-0.5065 z"
         fill-rule="evenodd"
         id="path84"
         style="stroke-width:0.264583" />
      <path
         fill="#e56a54"
         d="m 106.54379,113.24189 c -0.25327,0 -0.50654,0.2563 -0.50654,0.50955 v 0.76281 c 0,0.28987 0.25327,0.50955 0.50654,0.50955 h 0.76288 c 0.29294,0 0.5096,-0.21968 0.5096,-0.50955 v -0.76281 c 0,-0.25325 -0.21666,-0.50955 -0.5096,-0.50955 z"
         fill-rule="evenodd"
         id="path86"
         style="stroke-width:0.264583" />
      <path
         fill="#e56a54"
         d="m 106.54379,115.85984 c -0.25327,0 -0.50654,0.21664 -0.50654,0.46989 v 0.79942 c 0,0.2563 0.25327,0.47294 0.50654,0.47294 h 0.76288 c 0.29294,0 0.5096,-0.21664 0.5096,-0.47294 v -0.79942 c 0,-0.25325 -0.21666,-0.46989 -0.5096,-0.46989 z"
         fill-rule="evenodd"
         id="path88"
         style="stroke-width:0.264583" />
      <path
         fill="#e56a54"
         d="m 106.54379,118.43813 c -0.25327,0 -0.50654,0.21663 -0.50654,0.50955 v 0.76281 c 0,0.25325 0.25327,0.5065 0.50654,0.5065 h 0.76288 c 0.29294,0 0.5096,-0.25325 0.5096,-0.5065 v -0.76281 c 0,-0.29292 -0.21666,-0.50955 -0.5096,-0.50955 z"
         fill-rule="evenodd"
         id="path90"
         style="stroke-width:0.264583" />
      <path
         fill="#e56a54"
         d="m 106.54379,121.01641 c -0.25327,0 -0.50654,0.21968 -0.50654,0.50955 v 0.76281 c 0,0.28986 0.25327,0.50955 0.50654,0.50955 h 0.76288 c 0.29294,0 0.5096,-0.21969 0.5096,-0.50955 v -0.76281 c 0,-0.28987 -0.21666,-0.50955 -0.5096,-0.50955 z"
         fill-rule="evenodd"
         id="path92"
         style="stroke-width:0.264583" />
      <path
         fill="#e56a54"
         d="m 119.47905,113.24189 c -0.25327,0 -0.47298,0.2563 -0.47298,0.50955 v 0.76281 c 0,0.28987 0.21971,0.50955 0.47298,0.50955 h 0.79949 c 0.25327,0 0.47299,-0.21968 0.47299,-0.50955 v -0.76281 c 0,-0.25325 -0.21972,-0.50955 -0.47299,-0.50955 z"
         fill-rule="evenodd"
         id="path94"
         style="stroke-width:0.264583" />
      <path
         fill="#e56a54"
         d="m 119.47905,115.85984 c -0.25327,0 -0.47298,0.21664 -0.47298,0.46989 v 0.79942 c 0,0.2563 0.21971,0.47294 0.47298,0.47294 h 0.79949 c 0.25327,0 0.47299,-0.21664 0.47299,-0.47294 v -0.79942 c 0,-0.25325 -0.21972,-0.46989 -0.47299,-0.46989 z"
         fill-rule="evenodd"
         id="path96"
         style="stroke-width:0.264583" />
      <path
         fill="#e56a54"
         d="m 119.47905,118.43813 c -0.25327,0 -0.47298,0.21663 -0.47298,0.50955 v 0.76281 c 0,0.25325 0.21971,0.5065 0.47298,0.5065 h 0.79949 c 0.25327,0 0.47299,-0.25325 0.47299,-0.5065 v -0.76281 c 0,-0.29292 -0.21972,-0.50955 -0.47299,-0.50955 z"
         fill-rule="evenodd"
         id="path98"
         style="stroke-width:0.264583" />
      <path
         fill="#e56a54"
         d="m 119.47905,121.01641 c -0.25327,0 -0.47298,0.21968 -0.47298,0.50955 v 0.76281 c 0,0.28986 0.21971,0.50955 0.47298,0.50955 h 0.79949 c 0.25327,0 0.47299,-0.21969 0.47299,-0.50955 v -0.76281 c 0,-0.28987 -0.21972,-0.50955 -0.47299,-0.50955 z"
         fill-rule="evenodd"
         id="path100"
         style="stroke-width:0.264583" />
    </g>
  </g>
</svg>
