<?xml version="1.0" encoding="UTF-8" standalone="no"?>
<svg
   xmlns:dc="http://purl.org/dc/elements/1.1/"
   xmlns:cc="http://creativecommons.org/ns#"
   xmlns:rdf="http://www.w3.org/1999/02/22-rdf-syntax-ns#"
   xmlns:svg="http://www.w3.org/2000/svg"
   xmlns="http://www.w3.org/2000/svg"
   xmlns:sodipodi="http://sodipodi.sourceforge.net/DTD/sodipodi-0.dtd"
   xmlns:inkscape="http://www.inkscape.org/namespaces/inkscape"
   width="19.944279mm"
   height="19.987221mm"
   viewBox="0 0 19.944279 19.987221"
   version="1.1"
   id="svg2524"
   inkscape:version="1.0.1 (3bc2e813f5, 2020-09-07)"
   sodipodi:docname="icon-cell.svg">
  <defs
     id="defs2518" />
  <sodipodi:namedview
     id="base"
     pagecolor="#ffffff"
     bordercolor="#666666"
     borderopacity="1.0"
     inkscape:pageopacity="0.0"
     inkscape:pageshadow="2"
     inkscape:zoom="5.6"
     inkscape:cx="16.893193"
     inkscape:cy="70.534577"
     inkscape:document-units="mm"
     inkscape:current-layer="layer1"
     inkscape:document-rotation="0"
     showgrid="false"
     fit-margin-top="0"
     fit-margin-left="0"
     fit-margin-right="0"
     fit-margin-bottom="0"
     inkscape:window-width="1920"
     inkscape:window-height="1027"
     inkscape:window-x="-8"
     inkscape:window-y="-8"
     inkscape:window-maximized="1" />
  <metadata
     id="metadata2521">
    <rdf:RDF>
      <cc:Work
         rdf:about="">
        <dc:format>image/svg+xml</dc:format>
        <dc:type
           rdf:resource="http://purl.org/dc/dcmitype/StillImage" />
        <dc:title></dc:title>
      </cc:Work>
    </rdf:RDF>
  </metadata>
  <g
     inkscape:label="Layer 1"
     inkscape:groupmode="layer"
     id="layer1"
     transform="translate(-237.22429,36.451943)">
    <g
       id="g1097"
       transform="matrix(0.26458333,0,0,0.26458333,48.596813,-88.378398)">
      <path
         fill="#e56a54"
         d="m 743.0365,220.2795 c 0.71014,0 1.37964,0.20966 1.9342,0.71011 1.85309,1.44727 2.90131,5.31569 3.14478,8.12908 0.0541,2.03564 -2.30615,3.03657 -4.66644,3.03657 -1.00763,0 -2.00855,-0.17584 -2.82691,-0.54104 -2.89453,-1.28496 -4.1051,-4.58528 -2.89453,-7.56775 0.89948,-1.97478 3.25977,-3.76697 5.3089,-3.76697 z m -0.007,-2.12357 c -2.96222,0 -6.06641,2.15738 -7.31757,5.0046 -1.77185,4.02395 0,8.69716 4.02399,10.46905 1.1159,0.50046 2.41436,0.75069 3.7196,0.75069 3.50324,0 7.00647,-1.79895 6.83063,-5.26158 -0.0812,-3.30033 -1.44733,-7.73006 -3.78052,-9.73867 -1.0415,-0.85212 -2.2453,-1.22409 -3.47613,-1.22409 z"
         fill-rule="evenodd"
         id="path138" />
      <path
         fill="#e56a54"
         d="m 737.40295,198.52306 c 0.56812,0 1.04828,0.31786 1.21057,0.80479 l 1.44727,3.62494 c -0.88593,0.0812 -1.60956,0.39902 -2.33319,0.88596 l -1.37287,-3.62496 c -0.31787,-0.88594 0.24347,-1.69073 1.04822,-1.69073 z m 28.01898,0.6763 c 0.16907,0 0.33136,0.0406 0.48694,0.12849 0.56128,0.32462 0.88593,0.96711 0.56128,1.60959 l -1.52838,3.5438 c -0.64252,-0.56134 -1.36615,-0.88596 -2.33325,-1.04827 l 1.69073,-3.54379 c 0.22992,-0.40578 0.68305,-0.68982 1.12268,-0.68982 z m -48.2605,18.53726 c 0.52076,0 1.25116,0.47342 4.0578,1.71781 -0.32464,0.32461 -0.48016,0.73039 -0.72363,1.04824 0,0 -0.16235,0.48694 -0.24347,1.21058 l -3.54382,-1.60959 c -1.0415,-0.32462 -1.0415,-1.85305 0,-2.25882 0.16229,-0.0676 0.29761,-0.10822 0.45312,-0.10822 z m 67.5011,1.75838 c 0.51398,0 1.09559,0.30434 1.29847,0.77098 0.23675,0.64247 -0.1623,1.44727 -0.72364,1.60957 l -3.62494,1.44728 c -0.0811,-1.04826 -0.40576,-1.77189 -0.88592,-2.33322 l 3.62494,-1.45404 c 0.0947,-0.0271 0.20288,-0.0406 0.31109,-0.0406 z m -65.05292,25.00265 c 0.0812,0.88594 0.39905,1.60959 0.88599,2.33999 l -3.625,1.36611 c -0.13525,0.0812 -0.29077,0.11498 -0.44635,0.11498 -0.48016,0 -0.98059,-0.33139 -1.16321,-0.75746 -0.24347,-0.64247 0.0812,-1.45403 0.72364,-1.60958 z m 61.43476,1.53519 3.46258,1.60959 c 1.04828,0.39902 1.04828,1.92744 0,2.33322 -0.12848,0.0406 -0.25018,0.0609 -0.37195,0.0609 -0.64245,0 -1.37286,-0.52751 -4.13214,-1.67046 0.48017,-0.64247 0.88593,-1.29172 1.04151,-2.33322 z m -44.68964,17.30643 c 0.56806,0.48691 1.29169,0.88592 2.25879,0.9671 l -1.69073,3.54379 c -0.24347,0.48017 -0.66279,0.73715 -1.12262,0.73715 -0.16236,0 -0.32465,-0.0338 -0.48694,-0.0947 -0.56812,-0.31784 -0.88599,-1.04147 -0.56812,-1.60956 z m 27.13971,0.64923 c 1.20386,3.46265 1.6908,3.78049 1.44733,4.5853 -0.23676,0.51397 -0.70337,0.77774 -1.17005,0.77774 -0.48016,0 -0.96032,-0.28406 -1.1632,-0.85892 l -1.44727,-3.61817 c 0.96033,-0.16232 1.60956,-0.40579 2.33319,-0.88595 z m -26.05768,-67.73103 c -0.43957,0 -0.88592,0.0812 -1.31872,0.25023 -1.77191,0.72365 -2.73902,2.739 -2.01538,4.51089 l 1.85302,4.74761 c -1.60955,2.33998 -1.85302,2.42114 -4.26739,2.82014 -1.29175,0.16232 -2.82019,0.48694 -3.78729,1.52843 -1.85303,1.69075 -1.52838,4.67322 -2.41437,6.12048 -0.39899,0.48694 -1.1294,0.9671 -1.93421,1.52843 -0.0812,0.0812 -0.23669,0.16231 -0.39898,0.24347 l -4.67322,-2.00859 c -0.42609,-0.21642 -0.8927,-0.31787 -1.35938,-0.31787 -0.41931,0 -0.83856,0.0812 -1.21734,0.23671 -2.89453,1.12265 -3.05683,5.15336 -0.2367,6.43834 l 4.66645,2.01535 c 0.48694,2.73899 0.48694,2.89454 -1.04822,5.15338 -0.80481,1.12265 -1.60962,2.33322 -1.60962,3.69934 -0.0811,2.42114 2.33325,4.42973 2.65784,6.03932 0.0812,0.80479 -0.0811,1.9342 -0.39899,2.82014 l -4.75439,1.85306 c -1.77185,0.64249 -2.73896,2.65784 -2.01532,4.5109 0.56128,1.36612 1.88684,2.25206 3.28003,2.25206 0.41253,0 0.82507,-0.0744 1.23083,-0.24347 l 4.75439,-1.84628 c 2.3332,1.60958 2.41437,1.84628 2.81336,4.26742 0.64923,3.78049 1.60962,4.74759 5.23456,5.5524 2.49554,0.56131 2.65783,0.64249 4.1051,3.06363 l -2.00861,4.66641 c -1.09558,2.39411 0.771,4.84229 3.12452,4.84229 0.42602,0 0.86566,-0.0811 1.30523,-0.25022 0.9671,-0.24347 1.52844,-0.9671 1.92743,-1.77191 l 2.01538,-4.67319 c 0.98737,-0.16909 1.6366,-0.28405 2.1709,-0.28405 0.95355,0 1.54193,0.35168 2.98248,1.3323 1.53516,1.07532 2.63752,1.62311 3.79401,1.62311 1.08881,0 2.21149,-0.48694 3.77374,-1.46079 1.24439,-0.78451 1.80573,-1.09561 2.56989,-1.09561 0.56811,0 1.25116,0.17585 2.42114,0.45313 l 1.85309,4.66644 c 0.48694,1.44727 1.77185,2.25882 3.22589,2.25882 2.41443,0 4.10516,-2.42114 3.21918,-4.75436 l -1.85303,-4.74759 c 1.60956,-2.25882 1.85303,-2.42114 4.2674,-2.82016 3.78729,-0.56131 4.67321,-1.60959 5.47802,-5.23453 0.64246,-2.49553 0.72364,-2.57669 3.138,-4.10512 3.42206,1.43375 4.82874,2.33322 6.10694,2.33322 0.37201,0 0.73718,-0.0744 1.14294,-0.24347 2.89459,-1.36611 3.05689,-5.39007 0.2367,-6.60064 l -4.66645,-2.01535 c -0.48688,-2.73224 -0.48688,-2.89455 1.04151,-5.15338 2.09655,-2.97571 2.25885,-4.18627 0.16235,-7.48659 -1.36615,-2.25208 -1.28497,-2.33322 -0.72363,-5.07222 l 4.75433,-1.7719 c 1.84631,-0.72365 2.73224,-2.739 2.00861,-4.59205 -0.56134,-1.37964 -1.90717,-2.21825 -3.31385,-2.21825 -0.39904,0 -0.80481,0.0676 -1.19708,0.20965 l -4.74756,1.85305 c -2.33325,-1.61635 -2.41437,-1.85305 -2.82019,-4.26743 -0.56128,-3.78726 -1.60956,-4.75436 -5.2345,-5.478 -2.49554,-0.64248 -2.57672,-0.72363 -4.1051,-3.13801 l 2.01532,-4.6732 c 0.80481,-1.69074 0,-3.78727 -1.85303,-4.5109 -0.44635,-0.20965 -0.91973,-0.31109 -1.39318,-0.31109 -1.30524,0 -2.58344,0.77774 -3.11774,2.08299 l -2.00855,4.6732 c -0.98742,0.16908 -1.63665,0.28404 -2.17767,0.28404 -0.94684,0 -1.53522,-0.35167 -2.97571,-1.33229 l -0.88598,-0.56132 c -0.18933,-0.12851 -0.41254,-0.18938 -0.62891,-0.18938 -0.35846,0 -0.70337,0.16232 -0.90625,0.50723 -0.23669,0.48693 -0.15558,1.21057 0.32459,1.45403 l 0.88598,0.64249 c 1.73804,1.19705 2.71192,1.65692 4.05103,1.65692 0.64245,0 1.36609,-0.1082 2.31292,-0.29081 0.78449,-0.13525 1.38636,-0.22993 1.8733,-0.22993 1.22412,0 1.78546,0.56808 2.87426,2.40761 1.60962,2.49553 2.33326,2.97571 5.31568,3.69934 2.73901,0.56808 3.05688,0.80479 3.54382,3.7061 0.16229,1.12941 0.39899,2.25206 0.9671,3.21916 0.96033,1.5352 2.65784,2.25884 3.86164,3.30032 0.56134,0.64925 0.72363,0.81156 0.72363,0.96711 0,0 0.16235,0.40577 0,1.60959 -0.31787,1.69751 -0.80481,2.98246 -0.56134,4.51089 0.39905,2.25884 2.6579,4.10512 2.57672,5.6403 0,1.52843 -2.33325,3.21918 -2.82019,5.5524 -0.56128,2.01535 0.80481,4.9099 0.16235,6.12047 -0.56134,1.29173 -3.62494,2.41438 -4.74762,4.02396 -1.29168,1.77189 -1.04828,4.75436 -2.17767,5.80261 -1.12939,1.0415 -4.02393,0.72366 -5.95813,1.92746 -1.77191,1.12942 -2.90131,4.03073 -4.18628,4.51089 -0.22321,0.10145 -0.52075,0.14203 -0.83862,0.14203 -0.71009,0 -1.53522,-0.18936 -1.98157,-0.30435 -1.06854,-0.25021 -1.8598,-0.38547 -2.54962,-0.38547 -1.2782,0 -2.18445,0.46665 -3.80756,1.5149 -1.17676,0.70334 -1.8598,1.06854 -2.52258,1.06854 -0.70331,0 -1.39313,-0.40576 -2.6308,-1.23087 -1.69073,-1.19702 -2.64429,-1.6231 -4.00366,-1.6231 -0.64923,0 -1.39313,0.10144 -2.36029,0.25698 -0.8927,0.14881 -1.48108,0.19614 -1.89362,0.19614 -0.70331,0 -0.85211,-0.14877 -1.00769,-0.19614 -1.28491,-0.64245 -2.33319,-3.54379 -4.02392,-4.75436 -1.77192,-1.28494 -4.74762,-1.12265 -5.79584,-2.1709 -1.04828,-1.12941 -0.72363,-4.02395 -1.93421,-5.95816 -0.8048,-1.29173 -2.09655,-1.9342 -3.46264,-3.06363 -0.88599,-0.80479 -1.04828,-1.20379 -1.04828,-1.20379 -0.56134,-1.29174 0.88592,-4.10512 0.48694,-6.12049 -0.40576,-2.17767 -2.65784,-4.10512 -2.49555,-5.6403 0,-1.52843 2.25208,-3.21918 2.81342,-5.5524 0.48694,-2.09651 -0.80481,-4.82875 -0.2367,-6.12047 0.64246,-1.28496 3.54377,-2.33322 4.74756,-4.02395 1.29175,-1.7719 1.12946,-4.75437 2.17768,-5.80263 1.12268,-1.04149 4.02398,-0.72364 5.95819,-1.92745 1.52844,-0.88594 2.25207,-2.65783 3.30029,-3.86841 0.50049,-0.50045 0.8454,-0.75068 1.6637,-0.75068 0.49371,0 1.15649,0.0879 2.11682,0.27052 0.77099,0.2367 1.57574,0.38548 2.40088,0.38548 0.29754,0 0.60186,-0.0203 0.90619,-0.0676 1.52844,-0.31786 2.73223,-1.28496 4.02398,-2.00861 0.48017,-0.32461 0.72364,-1.04825 0.39899,-1.52843 -0.21637,-0.33137 -0.62891,-0.55456 -1.02118,-0.55456 -0.17584,0 -0.35168,0.0473 -0.5072,0.14879 -2.18445,1.25792 -2.59027,1.77189 -3.73316,1.77189 -0.54107,0 -1.24438,-0.11497 -2.38732,-0.32461 l -1.85309,-4.74761 c -0.48694,-1.41345 -1.77863,-2.26559 -3.18537,-2.26559 z"
         fill-rule="evenodd"
         id="path140" />
      <path
         fill="#e56a54"
         d="m 763.907,223.81653 c -1.75159,0 -3.38147,0.91975 -3.79401,2.88777 -0.56805,2.33322 -1.21057,4.5109 -2.25879,6.5195 -0.31787,0.56809 0,1.21057 0.48694,1.53519 0.15552,0.0879 0.31781,0.12849 0.48017,0.12849 0.41931,0 0.8183,-0.26374 1.04821,-0.61541 1.12946,-2.25208 1.85309,-4.5109 2.41437,-7.08759 0.16913,-0.75745 0.82514,-1.10237 1.5893,-1.10237 1.08209,0 2.38061,0.69659 2.75934,1.83276 1.37286,4.10512 3.70605,10.86808 -0.0812,16.82625 -3.78723,5.76204 -9.85364,7.91266 -13.96552,7.91266 -2.26556,0 -3.93603,-0.65601 -4.30798,-1.71103 -0.24347,-0.88594 0.31787,-2.25882 1.84625,-3.86841 2.82019,-3.21917 5.15338,-5.79585 7.00647,-8.4537 0.40576,-0.56133 0.24347,-1.2038 -0.23675,-1.52843 -0.22315,-0.12173 -0.45984,-0.18936 -0.68982,-0.18936 -0.36518,0 -0.69654,0.16231 -0.84534,0.51399 -1.85309,2.57668 -4.1051,5.07222 -6.84412,8.04791 -2.73901,2.739 -2.73901,4.90992 -2.33325,6.20163 0.75073,2.06272 3.28681,3.17859 6.48572,3.17859 5.03162,0 11.72022,-2.77281 15.65625,-8.97444 4.42975,-6.84412 1.85303,-14.65533 0.40576,-18.76045 -0.72363,-2.13709 -2.84723,-3.29355 -4.82202,-3.29355 z"
         fill-rule="evenodd"
         id="path142" />
    </g>
  </g>
</svg>
